<svg width="30" height="30" viewBox="0 0 30 30" fill="none" xmlns="http://www.w3.org/2000/svg">
<path d="M26.35 16.9584C26.0292 16.9584 25.6937 16.8563 25.3729 16.7834C24.7232 16.6402 24.0847 16.4502 23.4625 16.2147C22.786 15.9685 22.0423 15.9813 21.3746 16.2505C20.7069 16.5198 20.1624 17.0264 19.8458 17.673L19.525 18.3292C18.1046 17.5391 16.7993 16.5577 15.6458 15.4126C14.5007 14.2591 13.5193 12.9538 12.7292 11.5334L13.3417 11.1251C13.9882 10.8085 14.4949 10.264 14.7641 9.59629C15.0333 8.92861 15.0461 8.18494 14.8 7.50841C14.5684 6.88485 14.3784 6.24665 14.2312 5.59799C14.1583 5.27716 14.1 4.94174 14.0562 4.60632C13.8792 3.5791 13.3411 2.64886 12.539 1.98313C11.7369 1.3174 10.7235 0.959918 9.68124 0.975072H5.30624C4.67775 0.969171 4.05536 1.09876 3.48145 1.35501C2.90753 1.61127 2.39557 1.98817 1.98041 2.46007C1.56526 2.93196 1.25665 3.48777 1.0756 4.08966C0.894555 4.69154 0.845318 5.32537 0.931244 5.94799C1.70815 12.0575 4.49837 17.7341 8.86115 22.081C13.2239 26.4279 18.9106 29.1975 25.0229 29.9522H25.5771C26.6525 29.9537 27.6908 29.5592 28.4937 28.8438C28.9551 28.4312 29.3237 27.9253 29.5751 27.3597C29.8264 26.7941 29.9549 26.1815 29.9521 25.5626V21.1876C29.9342 20.1746 29.5653 19.1992 28.9084 18.4279C28.2515 17.6566 27.3472 17.1372 26.35 16.9584V16.9584ZM27.0792 25.7084C27.0789 25.9155 27.0345 26.1201 26.9491 26.3087C26.8636 26.4973 26.7389 26.6655 26.5833 26.8022C26.4209 26.9436 26.2304 27.0492 26.0243 27.112C25.8183 27.1749 25.6013 27.1935 25.3875 27.1667C19.9259 26.4665 14.8528 23.9679 10.9685 20.0651C7.08424 16.1623 4.60976 11.0774 3.93541 5.61257C3.9122 5.39895 3.93254 5.18285 3.99521 4.97731C4.05787 4.77177 4.16155 4.58107 4.29999 4.41674C4.43666 4.26118 4.60488 4.13651 4.79346 4.05101C4.98205 3.96552 5.18668 3.92117 5.39374 3.92091H9.76874C10.1079 3.91336 10.439 4.02427 10.7052 4.23455C10.9714 4.44483 11.1559 4.74132 11.2271 5.07299C11.2854 5.4716 11.3583 5.86535 11.4458 6.25424C11.6143 7.02299 11.8385 7.77846 12.1167 8.51466L10.075 9.46257C9.90043 9.54267 9.7434 9.65645 9.61293 9.7974C9.48246 9.93835 9.38112 10.1037 9.31472 10.2839C9.24833 10.4641 9.21818 10.6557 9.22602 10.8476C9.23386 11.0395 9.27953 11.228 9.36041 11.4022C11.4592 15.8978 15.0731 19.5117 19.5687 21.6105C19.9238 21.7564 20.322 21.7564 20.6771 21.6105C20.859 21.5454 21.0261 21.4449 21.1688 21.3147C21.3115 21.1845 21.4269 21.0273 21.5083 20.8522L22.4125 18.8105C23.1664 19.0801 23.9358 19.3041 24.7167 19.4813C25.1056 19.5688 25.4993 19.6417 25.8979 19.7001C26.2296 19.7712 26.5261 19.9558 26.7364 20.2219C26.9466 20.4881 27.0575 20.8193 27.05 21.1584L27.0792 25.7084Z" fill="#E86030"/>
</svg>
